<mxfile host="app.diagrams.net" agent="Mozilla/5.0 (Windows NT 10.0; Win64; x64) AppleWebKit/537.36 (KHTML, like Gecko) Chrome/129.0.0.0 Safari/537.36" version="24.7.16">
  <diagram name="Page-1" id="7knyDHzBk_VnwqkZ82dX">
    <mxGraphModel dx="1434" dy="746" grid="1" gridSize="10" guides="1" tooltips="1" connect="1" arrows="1" fold="1" page="1" pageScale="1" pageWidth="827" pageHeight="1169" math="0" shadow="0">
      <root>
        <mxCell id="0" />
        <mxCell id="1" parent="0" />
        <mxCell id="-MDJI91fgP_gHWtbsGN_-3" style="edgeStyle=orthogonalEdgeStyle;rounded=0;orthogonalLoop=1;jettySize=auto;html=1;entryX=0.5;entryY=0;entryDx=0;entryDy=0;" edge="1" parent="1" source="-MDJI91fgP_gHWtbsGN_-1" target="-MDJI91fgP_gHWtbsGN_-2">
          <mxGeometry relative="1" as="geometry" />
        </mxCell>
        <mxCell id="-MDJI91fgP_gHWtbsGN_-7" style="edgeStyle=orthogonalEdgeStyle;rounded=0;orthogonalLoop=1;jettySize=auto;html=1;entryX=0.5;entryY=0;entryDx=0;entryDy=0;" edge="1" parent="1" source="-MDJI91fgP_gHWtbsGN_-1" target="-MDJI91fgP_gHWtbsGN_-4">
          <mxGeometry relative="1" as="geometry" />
        </mxCell>
        <mxCell id="-MDJI91fgP_gHWtbsGN_-8" style="edgeStyle=orthogonalEdgeStyle;rounded=0;orthogonalLoop=1;jettySize=auto;html=1;entryX=0.5;entryY=0;entryDx=0;entryDy=0;" edge="1" parent="1" source="-MDJI91fgP_gHWtbsGN_-1" target="-MDJI91fgP_gHWtbsGN_-5">
          <mxGeometry relative="1" as="geometry" />
        </mxCell>
        <mxCell id="-MDJI91fgP_gHWtbsGN_-9" style="edgeStyle=orthogonalEdgeStyle;rounded=0;orthogonalLoop=1;jettySize=auto;html=1;entryX=0.5;entryY=0;entryDx=0;entryDy=0;" edge="1" parent="1" source="-MDJI91fgP_gHWtbsGN_-1" target="-MDJI91fgP_gHWtbsGN_-6">
          <mxGeometry relative="1" as="geometry" />
        </mxCell>
        <mxCell id="-MDJI91fgP_gHWtbsGN_-12" style="edgeStyle=orthogonalEdgeStyle;rounded=0;orthogonalLoop=1;jettySize=auto;html=1;entryX=0.5;entryY=0;entryDx=0;entryDy=0;" edge="1" parent="1" source="-MDJI91fgP_gHWtbsGN_-1" target="-MDJI91fgP_gHWtbsGN_-11">
          <mxGeometry relative="1" as="geometry" />
        </mxCell>
        <mxCell id="-MDJI91fgP_gHWtbsGN_-1" value="&lt;font style=&quot;font-size: 24px;&quot;&gt;IDEAS&lt;/font&gt;" style="rounded=0;whiteSpace=wrap;html=1;" vertex="1" parent="1">
          <mxGeometry x="320" y="90" width="150" height="70" as="geometry" />
        </mxCell>
        <mxCell id="-MDJI91fgP_gHWtbsGN_-2" value="Kingdom efforts on sustainable dev" style="rounded=1;whiteSpace=wrap;html=1;" vertex="1" parent="1">
          <mxGeometry x="60" y="270" width="120" height="40" as="geometry" />
        </mxCell>
        <mxCell id="-MDJI91fgP_gHWtbsGN_-4" value="Form for donation&lt;span style=&quot;color: rgba(0, 0, 0, 0); font-family: monospace; font-size: 0px; text-align: start; text-wrap: nowrap;&quot;&gt;%3CmxGraphModel%3E%3Croot%3E%3CmxCell%20id%3D%220%22%2F%3E%3CmxCell%20id%3D%221%22%20parent%3D%220%22%2F%3E%3CmxCell%20id%3D%222%22%20value%3D%22Kingdom%20efforts%20on%20sustainable%20dev%22%20style%3D%22rounded%3D1%3BwhiteSpace%3Dwrap%3Bhtml%3D1%3B%22%20vertex%3D%221%22%20parent%3D%221%22%3E%3CmxGeometry%20x%3D%2260%22%20y%3D%22270%22%20width%3D%22120%22%20height%3D%2240%22%20as%3D%22geometry%22%2F%3E%3C%2FmxCell%3E%3C%2Froot%3E%3C%2FmxGraphModel%3E&lt;/span&gt;" style="rounded=1;whiteSpace=wrap;html=1;" vertex="1" parent="1">
          <mxGeometry x="230" y="270" width="120" height="40" as="geometry" />
        </mxCell>
        <mxCell id="-MDJI91fgP_gHWtbsGN_-5" value="Elements viewing slowly" style="rounded=1;whiteSpace=wrap;html=1;" vertex="1" parent="1">
          <mxGeometry x="390" y="270" width="120" height="40" as="geometry" />
        </mxCell>
        <mxCell id="-MDJI91fgP_gHWtbsGN_-6" value="Companies apps (tawklna) credit on footer" style="rounded=1;whiteSpace=wrap;html=1;" vertex="1" parent="1">
          <mxGeometry x="550" y="260" width="140" height="70" as="geometry" />
        </mxCell>
        <mxCell id="-MDJI91fgP_gHWtbsGN_-10" value="When hovering on a card the background changes" style="rounded=1;whiteSpace=wrap;html=1;" vertex="1" parent="1">
          <mxGeometry x="710" y="255" width="163" height="70" as="geometry" />
        </mxCell>
        <mxCell id="-MDJI91fgP_gHWtbsGN_-11" value="About my company just like the one in sadaia" style="rounded=1;whiteSpace=wrap;html=1;" vertex="1" parent="1">
          <mxGeometry x="120" y="410" width="190" height="60" as="geometry" />
        </mxCell>
      </root>
    </mxGraphModel>
  </diagram>
</mxfile>
